<?xml version="1.0" encoding="UTF-8"?>
<svg width="52px" height="52px" viewBox="0 0 52 52" version="1.1" xmlns="http://www.w3.org/2000/svg" xmlns:xlink="http://www.w3.org/1999/xlink">
    <!-- Generator: Sketch 58 (84663) - https://sketch.com -->
    <title>Logo NavBar</title>
    <desc>Created with Sketch.</desc>
    <defs>
        <linearGradient x1="24.6644735%" y1="73.7312991%" x2="123.494439%" y2="-18.1858338%" id="linearGradient-1">
            <stop stop-color="#FF7400" offset="0%"></stop>
            <stop stop-color="#D61C0E" offset="100%"></stop>
        </linearGradient>
    </defs>
    <g id="Home" stroke="none" stroke-width="1" fill="none" fill-rule="evenodd">
        <g id="Home-Desktop-Dark-Mode" transform="translate(-40.000000, -14.000000)" stroke="url(#linearGradient-1)">
            <path d="M72.9733333,14.5 L45.2,14.5 C42.6042617,14.5 40.5,16.6042617 40.5,19.2 L40.5,60.8 C40.5,63.3957383 42.6042617,65.5 45.2,65.5 C45.239997,65.4998891 45.239997,65.4998891 45.2949423,65.4993128 L45.3424658,65.5 L72.9733333,65.5 C73.2494757,65.5 73.4733333,65.2761424 73.4733333,65 L73.4733333,60.6575342 C73.4733333,57.9831143 71.3052876,55.8150685 68.6308657,55.8150685 L49.899,55.8149981 L49.899,44.842 L82.0989746,44.842 L82.1,65 C82.1,65.2761424 82.3238576,65.5 82.6,65.5 L86.8,65.5 C89.3957383,65.5 91.5,63.3957383 91.5,60.8000241 L91.4991352,40.0313752 L91.5,40 C91.4999728,39.9799044 91.4999728,39.9799044 91.4998208,39.9557794 L91.5,19.2 C91.5,16.6042617 89.3957383,14.5 86.8,14.5 L82.6,14.5 C82.3238576,14.5 82.1,14.7238576 82.1,15.0000254 L82.0989746,35.157 L49.899,35.157 L49.899,24.1839745 L68.6308676,24.1849315 C71.3052876,24.1849315 73.4733333,22.0168857 73.4733333,19.3424658 L73.4733333,15 C73.4733333,14.7238576 73.2494757,14.5 72.9733333,14.5 Z" id="Logo-NavBar"></path>
        </g>
    </g>
</svg>